<?xml version="1.0" encoding="utf-8"?>
<!-- Generator: Adobe Illustrator 23.0.6, SVG Export Plug-In . SVG Version: 6.00 Build 0)  -->
<svg version="1.1" id="katman_1" xmlns="http://www.w3.org/2000/svg" xmlns:xlink="http://www.w3.org/1999/xlink" x="0px" y="0px"
	 viewBox="0 0 400 150" style="enable-background:new 0 0 400 150;" xml:space="preserve">
<style type="text/css">
	.st0{fill:#1363DF;}
	.st1{fill:#47B5FF;}
	.st2{enable-background:new    ;}
	.st3{fill:#06283D;}
</style>
<g>
	<path class="st0" d="M110.53,8.9l32.2,48.2c1.3,1.9,1.3,4.6,0,6.5l-31.7,47.8l-34.2-51.1L110.53,8.9z"/>
	<path class="st1" d="M43.33,8.9l32,51.4l-33.2,51.1l-31.2-47.1c-1.3-1.9-1.3-4.5,0-6.5L43.33,8.9z"/>
	<g class="st2">
		<path class="st1" d="M161.36,65.89c0-15.91,11.8-27.79,27.85-27.79c15.9,0,27.7,11.8,27.7,27.79c0,15.99-11.8,27.79-27.7,27.79
			C173.16,93.68,161.36,81.8,161.36,65.89z M209.44,65.89c0-12.03-8.66-20.88-20.23-20.88c-11.72,0-20.38,8.85-20.38,20.88
			c0,12.03,8.66,20.88,20.38,20.88C200.78,86.77,209.44,77.92,209.44,65.89z"/>
		<path class="st1" d="M273.27,38.72v54.33h-6.12l-31.36-40.52v40.52h-7.47V38.72h6.12l31.36,40.52V38.72H273.27z"/>
	</g>
	<path class="st3" d="M76.03,61.1l-33.2,51.1l14.8,22.4c2.2,3.4,6.1,5.4,10.2,5.4h17.4c4.1,0,8-2,10.2-5.4l14.8-22.4L76.03,61.1z"/>
	<g class="st2">
		<path class="st0" d="M296.85,52.82c0,5.08-3.44,8.51-8.15,8.51c-2.37,0-4.44-0.94-5.75-2.83v2.64h-2.8V37.85h2.92v9.17
			c1.34-1.79,3.35-2.67,5.63-2.67C293.41,44.34,296.85,47.73,296.85,52.82z M293.9,52.82c0-3.55-2.34-5.84-5.45-5.84
			c-3.07,0-5.42,2.29-5.42,5.84c0,3.55,2.34,5.87,5.42,5.87C291.56,58.69,293.9,56.36,293.9,52.82z"/>
		<path class="st0" d="M299.41,52.82c0-4.96,3.56-8.47,8.4-8.47c4.84,0,8.37,3.52,8.37,8.47c0,4.96-3.53,8.51-8.37,8.51
			C302.97,61.32,299.41,57.78,299.41,52.82z M313.22,52.82c0-3.55-2.31-5.84-5.42-5.84c-3.1,0-5.45,2.29-5.45,5.84
			c0,3.55,2.34,5.87,5.45,5.87C310.91,58.69,313.22,56.36,313.22,52.82z"/>
		<path class="st0" d="M332.85,51.09v10.04h-2.77v-2.2c-0.97,1.51-2.77,2.39-5.29,2.39c-3.65,0-5.96-2.01-5.96-4.9
			c0-2.67,1.67-4.87,6.48-4.87h4.63v-0.6c0-2.54-1.43-4.02-4.32-4.02c-1.92,0-3.86,0.69-5.11,1.79l-1.22-2.26
			c1.67-1.38,4.08-2.13,6.66-2.13C330.36,44.34,332.85,46.54,332.85,51.09z M329.93,56.05v-2.32h-4.5c-2.89,0-3.71,1.16-3.71,2.57
			c0,1.66,1.34,2.7,3.56,2.7C327.47,59,329.2,57.97,329.93,56.05z"/>
		<path class="st0" d="M346.94,44.34v2.92c-0.24-0.03-0.46-0.03-0.67-0.03c-3.13,0-5.08,1.98-5.08,5.62v8.29h-2.92V44.5h2.8v2.79
			C342.11,45.35,344.11,44.34,346.94,44.34z"/>
		<path class="st0" d="M365.6,37.85v23.29h-2.8V58.5c-1.31,1.88-3.38,2.83-5.75,2.83c-4.72,0-8.15-3.42-8.15-8.51
			c0-5.08,3.44-8.47,8.15-8.47c2.28,0,4.29,0.88,5.63,2.67v-9.17H365.6z M362.71,52.82c0-3.55-2.34-5.84-5.42-5.84
			c-3.1,0-5.45,2.29-5.45,5.84c0,3.55,2.34,5.87,5.45,5.87C360.36,58.69,362.71,56.36,362.71,52.82z"/>
		<path class="st0" d="M370.1,51.22h8.18v2.6h-8.18V51.22z"/>
	</g>
	<g class="st2">
		<path class="st0" d="M279.81,66.37c0-1.04,0.79-1.85,1.79-1.85c1,0,1.8,0.82,1.8,1.85c0,1.07-0.79,1.85-1.8,1.85
			C280.6,68.22,279.81,67.43,279.81,66.37z M280.15,71.2h2.92v16.64h-2.92V71.2z"/>
		<path class="st0" d="M303.94,78.26v9.57h-2.92v-9.23c0-3.26-1.58-4.87-4.35-4.87c-3.1,0-5.11,1.91-5.11,5.52v8.57h-2.92V71.2h2.8
			v2.51c1.19-1.69,3.26-2.67,5.81-2.67C301.17,71.04,303.94,73.37,303.94,78.26z"/>
		<path class="st0" d="M324.88,71.2v14.38c0,5.87-2.89,8.54-8.37,8.54c-2.95,0-5.93-0.85-7.7-2.48l1.4-2.32
			c1.49,1.32,3.83,2.17,6.21,2.17c3.8,0,5.54-1.82,5.54-5.59v-1.32c-1.4,1.73-3.5,2.57-5.81,2.57c-4.66,0-8.18-3.26-8.18-8.07
			s3.53-8.04,8.18-8.04c2.4,0,4.59,0.91,5.96,2.73V71.2H324.88z M322.02,79.08c0-3.23-2.31-5.4-5.54-5.4c-3.26,0-5.57,2.17-5.57,5.4
			c0,3.2,2.31,5.43,5.57,5.43C319.71,84.51,322.02,82.28,322.02,79.08z"/>
	</g>
</g>
</svg>
